<svg width="1033" height="278" viewBox="0 0 1033 278" fill="none" xmlns="http://www.w3.org/2000/svg">
<line x1="8.00046" y1="16" x2="8.00046" y2="225" stroke="url(#paint0_linear)" stroke-width="16"/>
<line x1="413.001" y1="232" x2="-0.000127971" y2="232" stroke="url(#paint1_linear)" stroke-width="16"/>
<line x1="1032.01" y1="232" x2="859.994" y2="232" stroke="url(#paint2_linear)" stroke-width="16"/>
<line x1="1024" y1="225" x2="1024" y2="16" stroke="url(#paint3_linear)" stroke-width="16"/>
<line x1="0.000457764" y1="8" x2="1032" y2="8" stroke="url(#paint4_linear)" stroke-width="16"/>
<g filter="url(#filter0_d)">
<path d="M139.305 181H114.766V138.25H78.4146V181H53.7349V78.625H78.4146V119.266H114.766V78.625H139.305V181ZM218.477 137.617H179.665V162.016H225.508V181H154.985V78.625H225.649V97.6797H179.665V119.266H218.477V137.617ZM260.243 162.016H303.204V181H235.563V78.625H260.243V162.016ZM395.805 131.922C395.805 141.906 393.954 150.742 390.25 158.43C386.547 166.117 381.274 172.047 374.43 176.219C367.633 180.344 359.875 182.406 351.157 182.406C342.438 182.406 334.704 180.414 327.954 176.43C321.204 172.398 315.93 166.656 312.133 159.203C308.383 151.75 306.415 143.195 306.227 133.539V127.773C306.227 117.742 308.055 108.906 311.711 101.266C315.415 93.5781 320.688 87.6484 327.532 83.4766C334.422 79.3047 342.25 77.2188 351.016 77.2188C359.688 77.2188 367.422 79.2812 374.219 83.4062C381.016 87.5312 386.29 93.4141 390.04 101.055C393.836 108.648 395.758 117.367 395.805 127.211V131.922ZM370.704 127.633C370.704 117.461 368.993 109.75 365.571 104.5C362.196 99.2031 357.344 96.5547 351.016 96.5547C338.641 96.5547 332.102 105.836 331.399 124.398L331.329 131.922C331.329 141.953 332.993 149.664 336.321 155.055C339.649 160.445 344.594 163.141 351.157 163.141C357.391 163.141 362.196 160.492 365.571 155.195C368.946 149.898 370.657 142.281 370.704 132.344V127.633ZM434.829 181H410.219V78.625H434.829V181ZM490.024 144.859H476.665V181H451.985V78.625H492.274C504.415 78.625 513.907 81.3203 520.75 86.7109C527.594 92.1016 531.016 99.7188 531.016 109.562C531.016 116.688 529.563 122.594 526.657 127.281C523.797 131.969 519.297 135.766 513.157 138.672L534.532 179.945V181H508.094L490.024 144.859ZM476.665 125.805H492.274C496.961 125.805 500.477 124.586 502.821 122.148C505.211 119.664 506.407 116.219 506.407 111.812C506.407 107.406 505.211 103.961 502.821 101.477C500.43 98.9453 496.915 97.6797 492.274 97.6797H476.665V125.805ZM639.93 161.875H606.11L600.204 181H573.836L611.383 78.625H634.586L672.415 181H645.907L639.93 161.875ZM612.016 142.82H634.024L622.985 107.312L612.016 142.82ZM704.618 162.016H747.579V181H679.938V78.625H704.618V162.016ZM840.18 131.922C840.18 141.906 838.329 150.742 834.625 158.43C830.922 166.117 825.649 172.047 818.805 176.219C812.008 180.344 804.25 182.406 795.532 182.406C786.813 182.406 779.079 180.414 772.329 176.43C765.579 172.398 760.305 166.656 756.508 159.203C752.758 151.75 750.79 143.195 750.602 133.539V127.773C750.602 117.742 752.43 108.906 756.086 101.266C759.79 93.5781 765.063 87.6484 771.907 83.4766C778.797 79.3047 786.625 77.2188 795.391 77.2188C804.063 77.2188 811.797 79.2812 818.594 83.4062C825.391 87.5312 830.665 93.4141 834.415 101.055C838.211 108.648 840.133 117.367 840.18 127.211V131.922ZM815.079 127.633C815.079 117.461 813.368 109.75 809.946 104.5C806.571 99.2031 801.719 96.5547 795.391 96.5547C783.016 96.5547 776.477 105.836 775.774 124.398L775.704 131.922C775.704 141.953 777.368 149.664 780.696 155.055C784.024 160.445 788.969 163.141 795.532 163.141C801.766 163.141 806.571 160.492 809.946 155.195C813.321 149.898 815.032 142.281 815.079 132.344V127.633ZM879.204 181H854.594V78.625H879.204V181ZM949.165 153.789C949.165 150.18 947.875 147.367 945.297 145.352C942.766 143.336 938.29 141.25 931.868 139.094C925.446 136.938 920.196 134.852 916.118 132.836C902.852 126.32 896.219 117.367 896.219 105.977C896.219 100.305 897.86 95.3125 901.141 91C904.469 86.6406 909.157 83.2656 915.204 80.875C921.25 78.4375 928.047 77.2188 935.594 77.2188C942.954 77.2188 949.54 78.5312 955.352 81.1562C961.211 83.7812 965.758 87.5312 968.993 92.4062C972.227 97.2344 973.844 102.766 973.844 109H949.235C949.235 104.828 947.946 101.594 945.368 99.2969C942.836 97 939.391 95.8516 935.032 95.8516C930.625 95.8516 927.133 96.8359 924.555 98.8047C922.024 100.727 920.758 103.188 920.758 106.188C920.758 108.812 922.165 111.203 924.977 113.359C927.79 115.469 932.735 117.672 939.813 119.969C946.891 122.219 952.704 124.656 957.25 127.281C968.313 133.656 973.844 142.445 973.844 153.648C973.844 162.602 970.469 169.633 963.719 174.742C956.969 179.852 947.711 182.406 935.946 182.406C927.649 182.406 920.125 180.93 913.375 177.977C906.672 174.977 901.61 170.898 898.188 165.742C894.813 160.539 893.125 154.562 893.125 147.812H917.875C917.875 153.297 919.282 157.352 922.094 159.977C924.954 162.555 929.571 163.844 935.946 163.844C940.024 163.844 943.235 162.977 945.579 161.242C947.969 159.461 949.165 156.977 949.165 153.789Z" fill="url(#paint5_linear)"/>
</g>
<path d="M476.456 242.56C477.352 242.56 477.8 243.232 477.8 244.576C477.8 247.104 475.816 248.368 471.848 248.368C471.08 248.368 469.976 248.224 468.536 247.936C468.952 249.92 469.288 252.128 469.544 254.56C469.832 256.96 469.976 258.944 469.976 260.512C469.976 263.968 469.416 266.608 468.296 268.432C467.176 270.256 465.704 271.168 463.88 271.168C461.576 271.168 459.928 269.536 458.936 266.272C457.976 263.008 457.496 258.08 457.496 251.488C457.496 245.344 458.152 239.12 459.464 232.816C460.808 226.48 462.632 221.248 464.936 217.12C467.272 212.96 469.832 210.88 472.616 210.88C474.12 210.88 475.288 211.552 476.12 212.896C476.984 214.24 477.416 216.048 477.416 218.32C477.416 225.84 472.92 234.032 463.928 242.896C463.608 246.032 463.448 248.784 463.448 251.152C463.448 254.448 463.56 257.824 463.784 261.28C464.008 264.768 464.376 266.512 464.888 266.512C465.848 266.512 466.328 264.848 466.328 261.52C466.328 259.024 466.152 256.608 465.8 254.272C465.48 251.936 465.032 249.472 464.456 246.88C464.424 246.464 464.552 245.936 464.84 245.296C465.16 244.656 465.544 244.096 465.992 243.616C466.44 243.136 466.84 242.896 467.192 242.896C467.832 242.896 468.6 242.928 469.496 242.992C469.784 243.024 470.12 243.04 470.504 243.04C471.784 243.04 473.208 242.928 474.776 242.704C475.032 242.672 475.304 242.64 475.592 242.608C475.88 242.576 476.168 242.56 476.456 242.56ZM471.608 215.632C471.032 215.632 470.312 216.608 469.448 218.56C468.616 220.512 467.784 223.104 466.952 226.336C466.12 229.536 465.4 232.928 464.792 236.512C467.352 233.6 469.32 230.576 470.696 227.44C472.072 224.272 472.776 221.312 472.808 218.56C472.808 216.608 472.408 215.632 471.608 215.632ZM479.075 256.24C477.635 256.24 476.451 255.584 475.523 254.272C474.627 252.928 474.179 251.264 474.179 249.28C474.179 246.88 474.339 244.688 474.659 242.704C474.979 240.688 475.507 238.56 476.243 236.32C476.563 235.36 477.011 234.672 477.587 234.256C478.163 233.84 479.075 233.632 480.323 233.632C481.027 233.632 481.507 233.744 481.763 233.968C482.051 234.192 482.195 234.528 482.195 234.976C482.195 235.232 482.019 236.096 481.667 237.568C481.347 238.752 481.091 239.824 480.899 240.784C480.259 244.144 479.939 246.384 479.939 247.504C479.939 248.176 480.019 248.656 480.179 248.944C480.339 249.2 480.595 249.328 480.947 249.328C481.427 249.328 482.019 248.848 482.723 247.888C483.459 246.928 484.227 245.472 485.027 243.52C485.859 241.568 486.659 239.168 487.427 236.32C487.683 235.36 488.067 234.672 488.579 234.256C489.123 233.84 489.923 233.632 490.979 233.632C491.715 233.632 492.227 233.728 492.515 233.92C492.803 234.08 492.947 234.4 492.947 234.88C492.947 235.68 492.547 237.872 491.747 241.456C490.851 245.552 490.403 248.08 490.403 249.04C490.403 249.648 490.531 250.128 490.787 250.48C491.043 250.8 491.379 250.96 491.795 250.96C492.435 250.96 493.187 250.576 494.051 249.808C494.947 249.008 496.131 247.728 497.603 245.968C497.987 245.52 498.419 245.296 498.899 245.296C499.315 245.296 499.635 245.488 499.859 245.872C500.115 246.256 500.243 246.784 500.243 247.456C500.243 248.736 499.939 249.728 499.331 250.432C497.955 252.128 496.467 253.52 494.867 254.608C493.299 255.696 491.507 256.24 489.491 256.24C487.955 256.24 486.819 255.648 486.083 254.464C485.379 253.28 485.027 251.616 485.027 249.472C484.483 251.648 483.667 253.328 482.579 254.512C481.491 255.664 480.323 256.24 479.075 256.24ZM514.543 245.296C514.959 245.296 515.279 245.488 515.503 245.872C515.759 246.256 515.887 246.784 515.887 247.456C515.887 248.736 515.583 249.728 514.975 250.432C513.599 252.128 512.095 253.52 510.463 254.608C508.863 255.696 507.039 256.24 504.991 256.24C502.175 256.24 500.079 254.96 498.703 252.4C497.359 249.84 496.687 246.528 496.687 242.464C496.687 238.56 497.183 234.112 498.175 229.12C499.199 224.128 500.687 219.84 502.639 216.256C504.623 212.672 506.975 210.88 509.695 210.88C511.231 210.88 512.431 211.6 513.295 213.04C514.191 214.448 514.639 216.48 514.639 219.136C514.639 222.944 513.583 227.36 511.471 232.384C509.359 237.408 506.495 242.384 502.879 247.312C503.103 248.624 503.471 249.568 503.983 250.144C504.495 250.688 505.167 250.96 505.999 250.96C507.311 250.96 508.463 250.592 509.455 249.856C510.447 249.088 511.711 247.792 513.247 245.968C513.631 245.52 514.063 245.296 514.543 245.296ZM508.639 215.632C507.903 215.632 507.071 216.96 506.143 219.616C505.215 222.272 504.399 225.568 503.695 229.504C502.991 233.44 502.607 237.216 502.543 240.832C504.815 237.088 506.623 233.344 507.967 229.6C509.311 225.824 509.983 222.384 509.983 219.28C509.983 216.848 509.535 215.632 508.639 215.632ZM530.199 245.296C530.615 245.296 530.935 245.488 531.159 245.872C531.415 246.256 531.543 246.784 531.543 247.456C531.543 248.736 531.239 249.728 530.631 250.432C529.255 252.128 527.751 253.52 526.119 254.608C524.519 255.696 522.695 256.24 520.647 256.24C517.831 256.24 515.735 254.96 514.359 252.4C513.015 249.84 512.343 246.528 512.343 242.464C512.343 238.56 512.839 234.112 513.831 229.12C514.855 224.128 516.343 219.84 518.295 216.256C520.279 212.672 522.631 210.88 525.351 210.88C526.887 210.88 528.087 211.6 528.951 213.04C529.847 214.448 530.295 216.48 530.295 219.136C530.295 222.944 529.239 227.36 527.127 232.384C525.015 237.408 522.151 242.384 518.535 247.312C518.759 248.624 519.127 249.568 519.639 250.144C520.151 250.688 520.823 250.96 521.655 250.96C522.967 250.96 524.119 250.592 525.111 249.856C526.103 249.088 527.367 247.792 528.903 245.968C529.287 245.52 529.719 245.296 530.199 245.296ZM524.295 215.632C523.559 215.632 522.727 216.96 521.799 219.616C520.871 222.272 520.055 225.568 519.351 229.504C518.647 233.44 518.263 237.216 518.199 240.832C520.471 237.088 522.279 233.344 523.623 229.6C524.967 225.824 525.639 222.384 525.639 219.28C525.639 216.848 525.191 215.632 524.295 215.632ZM536.591 257.296C534.927 257.296 533.647 256.912 532.751 256.144C531.887 255.376 531.455 254.512 531.455 253.552C531.455 252.72 531.759 252 532.367 251.392C532.975 250.784 533.871 250.48 535.055 250.48C535.471 250.48 535.951 250.528 536.495 250.624C537.071 250.688 537.503 250.736 537.791 250.768C537.759 249.936 537.567 249.152 537.215 248.416C536.895 247.68 536.479 246.976 535.967 246.304C535.455 245.6 534.975 244.992 534.527 244.48C533.535 246.368 532.543 247.936 531.551 249.184C530.591 250.432 529.535 251.616 528.383 252.736C527.807 253.312 527.199 253.6 526.559 253.6C526.047 253.6 525.631 253.424 525.311 253.072C524.991 252.688 524.831 252.224 524.831 251.68C524.831 251.04 525.055 250.448 525.503 249.904L526.127 249.136C527.887 246.96 529.215 245.168 530.111 243.76C530.655 242.832 531.295 241.6 532.031 240.064C532.767 238.496 533.487 236.88 534.191 235.216C534.799 233.808 536.063 233.104 537.983 233.104C538.879 233.104 539.503 233.184 539.855 233.344C540.207 233.504 540.383 233.76 540.383 234.112C540.383 234.304 540.319 234.608 540.191 235.024C540.063 235.44 539.887 235.856 539.663 236.272C539.087 237.424 538.799 238.4 538.799 239.2C538.799 239.68 538.959 240.208 539.279 240.784C539.631 241.36 540.159 242.08 540.863 242.944C541.887 244.288 542.655 245.44 543.167 246.4C543.711 247.328 543.983 248.352 543.983 249.472C543.983 249.792 543.951 250.24 543.887 250.816C545.455 250.208 547.295 248.592 549.407 245.968C549.791 245.52 550.223 245.296 550.703 245.296C551.119 245.296 551.439 245.488 551.663 245.872C551.919 246.256 552.047 246.784 552.047 247.456C552.047 248.672 551.743 249.664 551.135 250.432C549.535 252.416 547.999 253.776 546.527 254.512C545.087 255.216 543.295 255.6 541.151 255.664C539.871 256.752 538.351 257.296 536.591 257.296ZM569.556 245.296C569.972 245.296 570.292 245.488 570.516 245.872C570.772 246.256 570.9 246.784 570.9 247.456C570.9 248.736 570.596 249.728 569.988 250.432C568.612 252.128 567.108 253.52 565.476 254.608C563.844 255.696 561.972 256.24 559.86 256.24C553.332 256.24 550.068 251.648 550.068 242.464C550.068 241.056 550.116 239.632 550.212 238.192H548.34C547.38 238.192 546.724 238.016 546.372 237.664C546.052 237.312 545.892 236.752 545.892 235.984C545.892 234.192 546.612 233.296 548.052 233.296H550.788C551.332 229.776 552.164 226.56 553.284 223.648C554.404 220.736 555.748 218.416 557.316 216.688C558.916 214.96 560.628 214.096 562.452 214.096C563.796 214.096 564.852 214.688 565.62 215.872C566.388 217.056 566.772 218.544 566.772 220.336C566.772 225.296 564.692 229.616 560.532 233.296H565.908C566.42 233.296 566.788 233.408 567.012 233.632C567.236 233.856 567.348 234.272 567.348 234.88C567.348 237.088 565.54 238.192 561.924 238.192H556.068C556.004 239.792 555.972 241.04 555.972 241.936C555.972 245.264 556.356 247.6 557.124 248.944C557.924 250.288 559.172 250.96 560.868 250.96C562.244 250.96 563.46 250.544 564.516 249.712C565.572 248.88 566.82 247.632 568.26 245.968C568.644 245.52 569.076 245.296 569.556 245.296ZM561.156 218.704C560.676 218.704 560.132 219.312 559.524 220.528C558.948 221.712 558.388 223.376 557.844 225.52C557.332 227.632 556.9 229.984 556.548 232.576C558.436 230.944 559.844 229.12 560.772 227.104C561.732 225.056 562.212 223.2 562.212 221.536C562.212 219.648 561.86 218.704 561.156 218.704ZM572.895 256.24C570.911 256.24 569.327 255.52 568.143 254.08C566.959 252.64 566.367 250.752 566.367 248.416C566.367 245.856 566.959 243.44 568.143 241.168C569.327 238.864 570.895 237.024 572.847 235.648C574.831 234.24 576.927 233.536 579.135 233.536C579.839 233.536 580.303 233.68 580.527 233.968C580.783 234.224 580.991 234.704 581.151 235.408C581.823 235.28 582.527 235.216 583.263 235.216C584.831 235.216 585.615 235.776 585.615 236.896C585.615 237.568 585.375 239.168 584.895 241.696C584.159 245.376 583.791 247.936 583.791 249.376C583.791 249.856 583.903 250.24 584.127 250.528C584.383 250.816 584.703 250.96 585.087 250.96C585.695 250.96 586.431 250.576 587.295 249.808C588.159 249.008 589.327 247.728 590.799 245.968C591.183 245.52 591.615 245.296 592.095 245.296C592.511 245.296 592.831 245.488 593.055 245.872C593.311 246.256 593.439 246.784 593.439 247.456C593.439 248.736 593.135 249.728 592.527 250.432C591.215 252.064 589.823 253.44 588.351 254.56C586.879 255.68 585.455 256.24 584.079 256.24C583.023 256.24 582.047 255.888 581.151 255.184C580.287 254.448 579.631 253.456 579.183 252.208C577.519 254.896 575.423 256.24 572.895 256.24ZM574.623 251.392C575.327 251.392 575.999 250.976 576.639 250.144C577.279 249.312 577.743 248.208 578.031 246.832L579.807 238C578.463 238.032 577.215 238.544 576.063 239.536C574.943 240.496 574.047 241.776 573.375 243.376C572.703 244.976 572.367 246.672 572.367 248.464C572.367 249.456 572.559 250.192 572.943 250.672C573.359 251.152 573.919 251.392 574.623 251.392ZM598.706 256.24C595.57 256.24 593.122 255.36 591.362 253.6C589.634 251.808 588.77 249.456 588.77 246.544C588.77 243.952 589.282 241.68 590.306 239.728C591.33 237.776 592.658 236.272 594.29 235.216C595.922 234.16 597.634 233.632 599.426 233.632C601.186 233.632 602.546 234.16 603.506 235.216C604.498 236.24 604.994 237.568 604.994 239.2C604.994 240.544 604.69 241.68 604.082 242.608C603.506 243.536 602.738 244 601.778 244C601.17 244 600.674 243.856 600.29 243.568C599.938 243.28 599.762 242.88 599.762 242.368C599.762 242.144 599.794 241.888 599.858 241.6C599.922 241.312 599.97 241.104 600.002 240.976C600.162 240.496 600.242 240.048 600.242 239.632C600.242 239.216 600.13 238.896 599.906 238.672C599.714 238.448 599.426 238.336 599.042 238.336C598.306 238.336 597.618 238.672 596.978 239.344C596.338 239.984 595.826 240.864 595.442 241.984C595.058 243.104 594.866 244.336 594.866 245.68C594.866 249.392 596.482 251.248 599.714 251.248C601.026 251.248 602.434 250.816 603.938 249.952C605.474 249.056 606.978 247.728 608.45 245.968C608.834 245.52 609.266 245.296 609.746 245.296C610.162 245.296 610.482 245.488 610.706 245.872C610.962 246.256 611.09 246.784 611.09 247.456C611.09 248.672 610.786 249.664 610.178 250.432C608.674 252.288 606.866 253.728 604.754 254.752C602.674 255.744 600.658 256.24 598.706 256.24ZM627.61 251.008C628.922 251.264 629.578 251.984 629.578 253.168C629.578 253.968 629.21 254.688 628.474 255.328C627.77 255.936 626.746 256.24 625.402 256.24C623.098 256.24 621.21 255.536 619.738 254.128C618.298 252.688 617.578 250.816 617.578 248.512C617.578 247.264 618.218 246.368 619.498 245.824C620.906 245.216 621.914 244.576 622.522 243.904C623.13 243.2 623.434 242.352 623.434 241.36C623.434 240.784 623.306 240.352 623.05 240.064C622.826 239.776 622.538 239.632 622.186 239.632C621.322 239.632 620.362 240.256 619.306 241.504C618.282 242.752 617.322 244.368 616.426 246.352C615.53 248.304 614.826 250.32 614.314 252.4C613.962 253.904 613.546 254.928 613.066 255.472C612.618 255.984 611.898 256.24 610.906 256.24C609.914 256.24 609.178 255.888 608.698 255.184C608.25 254.448 607.946 253.328 607.786 251.824C607.626 250.32 607.546 248.112 607.546 245.2C607.546 240.272 608.042 235.136 609.034 229.792C610.058 224.448 611.546 219.968 613.498 216.352C615.482 212.704 617.85 210.88 620.602 210.88C622.074 210.88 623.258 211.52 624.154 212.8C625.082 214.048 625.546 215.68 625.546 217.696C625.546 220.928 624.602 224.288 622.714 227.776C620.826 231.232 617.754 235.28 613.498 239.92C613.402 241.584 613.354 243.296 613.354 245.056C614.89 241.056 616.65 238.16 618.634 236.368C620.618 234.544 622.474 233.632 624.202 233.632C625.802 233.632 627.082 234.176 628.042 235.264C629.034 236.352 629.53 237.696 629.53 239.296C629.53 241.056 629.082 242.672 628.186 244.144C627.29 245.616 625.754 246.928 623.578 248.08C623.77 249.04 624.154 249.712 624.73 250.096C625.338 250.448 626.298 250.752 627.61 251.008ZM619.594 215.632C619.018 215.632 618.378 216.464 617.674 218.128C616.97 219.76 616.282 221.984 615.61 224.8C614.97 227.584 614.442 230.624 614.026 233.92C616.01 231.584 617.642 229.04 618.922 226.288C620.234 223.536 620.89 221.04 620.89 218.8C620.89 217.776 620.778 216.992 620.554 216.448C620.33 215.904 620.01 215.632 619.594 215.632ZM672.209 245.296C672.625 245.296 672.945 245.488 673.169 245.872C673.425 246.256 673.553 246.784 673.553 247.456C673.553 248.736 673.249 249.728 672.641 250.432C671.329 252.032 669.889 253.408 668.321 254.56C666.753 255.68 665.201 256.24 663.665 256.24C661.233 256.24 659.377 254.816 658.097 251.968C656.753 253.664 655.569 254.8 654.545 255.376C653.553 255.952 652.385 256.24 651.041 256.24C649.089 256.24 647.473 255.52 646.193 254.08C644.945 252.608 644.321 250.704 644.321 248.368C644.321 245.808 644.865 243.44 645.953 241.264C647.041 239.056 648.529 237.264 650.417 235.888C652.337 234.48 654.481 233.648 656.849 233.392C657.457 227.184 658.609 221.888 660.305 217.504C662.033 213.088 664.289 210.88 667.073 210.88C668.449 210.88 669.585 211.504 670.481 212.752C671.409 214 671.873 215.888 671.873 218.416C671.873 222 670.993 226.192 669.233 230.992C667.473 235.792 665.121 240.72 662.177 245.776C662.305 247.632 662.577 248.96 662.993 249.76C663.441 250.56 664.001 250.96 664.673 250.96C665.537 250.96 666.417 250.576 667.313 249.808C668.209 249.04 669.409 247.76 670.913 245.968C671.297 245.52 671.729 245.296 672.209 245.296ZM666.545 215.584C665.937 215.584 665.329 216.672 664.721 218.848C664.113 220.992 663.585 223.808 663.137 227.296C662.721 230.784 662.417 234.432 662.225 238.24C665.809 230.432 667.601 224.16 667.601 219.424C667.601 218.208 667.489 217.264 667.265 216.592C667.073 215.92 666.833 215.584 666.545 215.584ZM652.721 251.392C653.329 251.392 653.937 251.152 654.545 250.672C655.153 250.16 655.921 249.232 656.849 247.888C656.529 246.16 656.369 244.224 656.369 242.08C656.369 241.312 656.401 240.064 656.465 238.336C654.705 238.88 653.233 240.064 652.049 241.888C650.897 243.68 650.321 245.68 650.321 247.888C650.321 250.224 651.121 251.392 652.721 251.392ZM691.056 245.296C691.472 245.296 691.792 245.488 692.016 245.872C692.272 246.256 692.4 246.784 692.4 247.456C692.4 248.736 692.096 249.728 691.488 250.432C690.304 251.872 688.624 253.2 686.448 254.416C684.304 255.632 682 256.24 679.536 256.24C676.176 256.24 673.568 255.328 671.712 253.504C669.856 251.68 668.928 249.184 668.928 246.016C668.928 243.808 669.392 241.76 670.32 239.872C671.248 237.952 672.528 236.432 674.16 235.312C675.824 234.192 677.696 233.632 679.776 233.632C681.632 233.632 683.12 234.192 684.24 235.312C685.36 236.4 685.92 237.888 685.92 239.776C685.92 241.984 685.12 243.888 683.52 245.488C681.952 247.056 679.28 248.304 675.504 249.232C676.304 250.704 677.824 251.44 680.064 251.44C681.504 251.44 683.136 250.944 684.96 249.952C686.816 248.928 688.416 247.6 689.76 245.968C690.144 245.52 690.576 245.296 691.056 245.296ZM678.96 238.336C677.776 238.336 676.768 239.024 675.936 240.4C675.136 241.776 674.736 243.44 674.736 245.392V245.488C676.624 245.04 678.112 244.368 679.2 243.472C680.288 242.576 680.832 241.536 680.832 240.352C680.832 239.744 680.656 239.264 680.304 238.912C679.984 238.528 679.536 238.336 678.96 238.336ZM712.486 241.408C712.582 241.376 712.742 241.36 712.966 241.36C713.446 241.36 713.814 241.52 714.07 241.84C714.326 242.16 714.454 242.592 714.454 243.136C714.454 244.128 714.262 244.912 713.878 245.488C713.494 246.032 712.918 246.432 712.15 246.688C710.678 247.168 709.11 247.408 707.446 247.408C706.038 247.408 704.71 247.216 703.462 246.832C702.534 248.336 701.51 249.888 700.39 251.488C699.11 253.312 698.006 254.56 697.078 255.232C696.15 255.904 695.094 256.24 693.91 256.24C692.598 256.24 691.558 255.728 690.79 254.704C690.054 253.68 689.59 252.064 689.398 249.856C689.014 245.376 688.822 241.456 688.822 238.096V236.416C688.854 235.36 689.142 234.624 689.686 234.208C690.23 233.792 691.046 233.584 692.134 233.584C692.966 233.584 693.574 233.776 693.958 234.16C694.374 234.512 694.582 235.12 694.582 235.984C694.582 239.664 694.806 244.448 695.254 250.336C697.174 247.488 698.614 245.216 699.574 243.52C699.094 242.592 698.854 241.488 698.854 240.208C698.854 239.12 699.094 238.064 699.574 237.04C700.054 236.016 700.71 235.184 701.542 234.544C702.374 233.904 703.318 233.584 704.374 233.584C705.302 233.584 706.054 233.92 706.63 234.592C707.206 235.232 707.494 236.176 707.494 237.424C707.494 238.864 707.11 240.512 706.342 242.368C707.558 242.304 709.174 242.064 711.19 241.648L712.486 241.408ZM731.696 245.296C732.112 245.296 732.432 245.488 732.656 245.872C732.912 246.256 733.04 246.784 733.04 247.456C733.04 248.736 732.736 249.728 732.128 250.432C730.944 251.872 729.264 253.2 727.088 254.416C724.944 255.632 722.64 256.24 720.176 256.24C716.816 256.24 714.208 255.328 712.352 253.504C710.496 251.68 709.568 249.184 709.568 246.016C709.568 243.808 710.032 241.76 710.96 239.872C711.888 237.952 713.168 236.432 714.8 235.312C716.464 234.192 718.336 233.632 720.416 233.632C722.272 233.632 723.76 234.192 724.88 235.312C726 236.4 726.56 237.888 726.56 239.776C726.56 241.984 725.76 243.888 724.16 245.488C722.592 247.056 719.92 248.304 716.144 249.232C716.944 250.704 718.464 251.44 720.704 251.44C722.144 251.44 723.776 250.944 725.6 249.952C727.456 248.928 729.056 247.6 730.4 245.968C730.784 245.52 731.216 245.296 731.696 245.296ZM719.6 238.336C718.416 238.336 717.408 239.024 716.576 240.4C715.776 241.776 715.376 243.44 715.376 245.392V245.488C717.264 245.04 718.752 244.368 719.84 243.472C720.928 242.576 721.472 241.536 721.472 240.352C721.472 239.744 721.296 239.264 720.944 238.912C720.624 238.528 720.176 238.336 719.6 238.336ZM747.324 245.296C747.74 245.296 748.06 245.488 748.284 245.872C748.54 246.256 748.668 246.784 748.668 247.456C748.668 248.736 748.364 249.728 747.756 250.432C746.38 252.128 744.876 253.52 743.244 254.608C741.644 255.696 739.82 256.24 737.772 256.24C734.956 256.24 732.86 254.96 731.484 252.4C730.14 249.84 729.468 246.528 729.468 242.464C729.468 238.56 729.964 234.112 730.956 229.12C731.98 224.128 733.468 219.84 735.42 216.256C737.404 212.672 739.756 210.88 742.476 210.88C744.012 210.88 745.212 211.6 746.076 213.04C746.972 214.448 747.42 216.48 747.42 219.136C747.42 222.944 746.364 227.36 744.252 232.384C742.14 237.408 739.276 242.384 735.66 247.312C735.884 248.624 736.252 249.568 736.764 250.144C737.276 250.688 737.948 250.96 738.78 250.96C740.092 250.96 741.244 250.592 742.236 249.856C743.228 249.088 744.492 247.792 746.028 245.968C746.412 245.52 746.844 245.296 747.324 245.296ZM741.42 215.632C740.684 215.632 739.852 216.96 738.924 219.616C737.996 222.272 737.18 225.568 736.476 229.504C735.772 233.44 735.388 237.216 735.324 240.832C737.596 237.088 739.404 233.344 740.748 229.6C742.092 225.824 742.764 222.384 742.764 219.28C742.764 216.848 742.316 215.632 741.42 215.632ZM769.268 241.264C769.684 241.264 770.004 241.472 770.228 241.888C770.452 242.304 770.564 242.832 770.564 243.472C770.564 245.008 770.1 245.92 769.172 246.208C767.252 246.88 765.14 247.264 762.836 247.36C762.228 250.048 761.028 252.208 759.236 253.84C757.444 255.44 755.412 256.24 753.14 256.24C751.22 256.24 749.572 255.776 748.196 254.848C746.852 253.92 745.828 252.688 745.124 251.152C744.42 249.616 744.068 247.952 744.068 246.16C744.068 243.728 744.532 241.568 745.46 239.68C746.388 237.76 747.668 236.272 749.3 235.216C750.932 234.128 752.74 233.584 754.724 233.584C757.156 233.584 759.108 234.432 760.58 236.128C762.084 237.792 762.964 239.856 763.22 242.32C764.724 242.224 766.516 241.904 768.596 241.36C768.852 241.296 769.076 241.264 769.268 241.264ZM753.524 251.152C754.548 251.152 755.428 250.736 756.164 249.904C756.932 249.072 757.444 247.872 757.7 246.304C756.708 245.632 755.94 244.752 755.396 243.664C754.884 242.576 754.628 241.424 754.628 240.208C754.628 239.696 754.676 239.184 754.772 238.672H754.532C753.252 238.672 752.18 239.296 751.316 240.544C750.484 241.76 750.068 243.488 750.068 245.728C750.068 247.488 750.404 248.832 751.076 249.76C751.78 250.688 752.596 251.152 753.524 251.152ZM792.077 245.296C792.493 245.296 792.813 245.488 793.037 245.872C793.293 246.256 793.421 246.784 793.421 247.456C793.421 248.736 793.117 249.728 792.509 250.432C791.133 252.128 789.645 253.52 788.045 254.608C786.477 255.696 784.685 256.24 782.669 256.24C780.973 256.24 779.597 255.632 778.541 254.416C776.717 255.6 774.813 256.208 772.829 256.24C772.413 262.416 771.469 267.568 769.997 271.696C768.525 275.856 766.365 277.936 763.517 277.936C761.789 277.936 760.509 277.312 759.677 276.064C758.845 274.816 758.429 273.088 758.429 270.88C758.429 267.744 759.149 264.08 760.589 259.888C762.029 255.728 764.253 251.136 767.261 246.112C767.261 241.44 767.229 238.192 767.165 236.368C767.133 235.44 767.501 234.704 768.269 234.16C769.037 233.616 769.997 233.344 771.149 233.344C771.821 233.344 772.301 233.488 772.589 233.776C772.909 234.032 773.085 234.56 773.117 235.36C773.117 236.16 773.133 236.752 773.165 237.136C774.189 235.856 775.197 234.944 776.189 234.4C777.181 233.824 778.237 233.536 779.357 233.536C781.149 233.536 782.605 234.256 783.725 235.696C784.877 237.136 785.453 239.024 785.453 241.36C785.453 243.056 785.181 244.704 784.637 246.304C784.093 247.904 783.341 249.36 782.381 250.672C783.053 250.864 783.613 250.96 784.061 250.96C785.117 250.96 786.125 250.576 787.085 249.808C788.045 249.04 789.277 247.76 790.781 245.968C791.165 245.52 791.597 245.296 792.077 245.296ZM773.069 251.632C774.221 251.376 775.277 250.752 776.237 249.76C777.229 248.736 778.013 247.488 778.589 246.016C779.165 244.512 779.453 242.944 779.453 241.312C779.453 240.352 779.261 239.632 778.877 239.152C778.493 238.64 777.981 238.384 777.341 238.384C776.189 238.384 774.797 239.6 773.165 242.032C773.133 243.44 773.117 245.504 773.117 248.224C773.117 249.696 773.101 250.832 773.069 251.632ZM763.901 273.232C764.765 273.232 765.485 271.344 766.061 267.568C766.637 263.824 767.005 259.152 767.165 253.552C765.789 256.752 764.701 259.808 763.901 262.72C763.101 265.632 762.701 268.08 762.701 270.064C762.701 271.088 762.829 271.872 763.085 272.416C763.309 272.96 763.581 273.232 763.901 273.232ZM810.962 245.296C811.378 245.296 811.698 245.488 811.922 245.872C812.178 246.256 812.306 246.784 812.306 247.456C812.306 248.736 812.002 249.728 811.394 250.432C810.21 251.872 808.53 253.2 806.354 254.416C804.21 255.632 801.906 256.24 799.442 256.24C796.082 256.24 793.474 255.328 791.618 253.504C789.762 251.68 788.834 249.184 788.834 246.016C788.834 243.808 789.298 241.76 790.226 239.872C791.154 237.952 792.434 236.432 794.066 235.312C795.73 234.192 797.602 233.632 799.682 233.632C801.538 233.632 803.026 234.192 804.146 235.312C805.266 236.4 805.826 237.888 805.826 239.776C805.826 241.984 805.026 243.888 803.426 245.488C801.858 247.056 799.186 248.304 795.41 249.232C796.21 250.704 797.73 251.44 799.97 251.44C801.41 251.44 803.042 250.944 804.866 249.952C806.722 248.928 808.322 247.6 809.666 245.968C810.05 245.52 810.482 245.296 810.962 245.296ZM798.866 238.336C797.682 238.336 796.674 239.024 795.842 240.4C795.042 241.776 794.642 243.44 794.642 245.392V245.488C796.53 245.04 798.018 244.368 799.106 243.472C800.194 242.576 800.738 241.536 800.738 240.352C800.738 239.744 800.562 239.264 800.21 238.912C799.89 238.528 799.442 238.336 798.866 238.336ZM827.79 240.208C828.494 240.208 829.086 240.464 829.566 240.976C830.078 241.456 830.334 242.064 830.334 242.8C830.334 243.216 830.238 243.664 830.046 244.144C829.534 245.328 828.814 246.32 827.886 247.12C826.958 247.92 825.934 248.32 824.814 248.32C823.918 248.32 823.15 248 822.51 247.36C821.902 246.72 821.598 245.856 821.598 244.768C821.598 244.16 821.63 243.504 821.694 242.8C821.758 242.288 821.79 241.936 821.79 241.744C821.79 241.488 821.726 241.296 821.598 241.168C821.502 241.04 821.374 240.976 821.214 240.976C820.766 240.976 820.158 241.52 819.39 242.608C818.622 243.664 817.854 245.072 817.086 246.832C816.318 248.592 815.694 250.448 815.214 252.4C814.862 253.936 814.462 254.96 814.014 255.472C813.566 255.984 812.83 256.24 811.806 256.24C810.59 256.24 809.726 255.6 809.214 254.32C808.734 253.04 808.494 250.992 808.494 248.176C808.494 244.016 809.086 240.064 810.27 236.32C810.558 235.392 811.022 234.72 811.662 234.304C812.334 233.856 813.262 233.632 814.446 233.632C815.086 233.632 815.534 233.712 815.79 233.872C816.046 234.032 816.174 234.336 816.174 234.784C816.174 235.296 815.934 236.448 815.454 238.24C815.134 239.52 814.878 240.64 814.686 241.6C814.494 242.56 814.334 243.744 814.206 245.152C815.262 242.4 816.446 240.16 817.758 238.432C819.07 236.704 820.35 235.472 821.598 234.736C822.846 234 823.982 233.632 825.006 233.632C825.934 233.632 826.638 233.904 827.118 234.448C827.63 234.96 827.886 235.728 827.886 236.752C827.886 237.36 827.71 238.512 827.358 240.208H827.79Z" fill="url(#paint6_linear)"/>
<defs>
<filter id="filter0_d" x="49.7349" y="77.2188" width="928.109" height="113.188" filterUnits="userSpaceOnUse" color-interpolation-filters="sRGB">
<feFlood flood-opacity="0" result="BackgroundImageFix"/>
<feColorMatrix in="SourceAlpha" type="matrix" values="0 0 0 0 0 0 0 0 0 0 0 0 0 0 0 0 0 0 127 0"/>
<feOffset dy="4"/>
<feGaussianBlur stdDeviation="2"/>
<feColorMatrix type="matrix" values="0 0 0 0 0 0 0 0 0 0 0 0 0 0 0 0 0 0 0.25 0"/>
<feBlend mode="normal" in2="BackgroundImageFix" result="effect1_dropShadow"/>
<feBlend mode="normal" in="SourceGraphic" in2="effect1_dropShadow" result="shape"/>
</filter>
<linearGradient id="paint0_linear" x1="0.000457764" y1="120.5" x2="-0.999542" y2="120.5" gradientUnits="userSpaceOnUse">
<stop stop-color="#B210FF"/>
<stop offset="0.9999" stop-color="#E59D79"/>
<stop offset="1" stop-color="#B210FF"/>
</linearGradient>
<linearGradient id="paint1_linear" x1="206.5" y1="224" x2="206.5" y2="223" gradientUnits="userSpaceOnUse">
<stop stop-color="#B210FF"/>
<stop offset="0.9999" stop-color="#E59D79"/>
<stop offset="1" stop-color="#B210FF"/>
</linearGradient>
<linearGradient id="paint2_linear" x1="946" y1="224" x2="946" y2="223" gradientUnits="userSpaceOnUse">
<stop stop-color="#B210FF"/>
<stop offset="0.9999" stop-color="#E59D79"/>
<stop offset="1" stop-color="#B210FF"/>
</linearGradient>
<linearGradient id="paint3_linear" x1="1032" y1="120.5" x2="1033" y2="120.5" gradientUnits="userSpaceOnUse">
<stop stop-color="#B210FF"/>
<stop offset="0.9999" stop-color="#E59D79"/>
<stop offset="1" stop-color="#B210FF"/>
</linearGradient>
<linearGradient id="paint4_linear" x1="516" y1="16" x2="516" y2="17" gradientUnits="userSpaceOnUse">
<stop stop-color="#B210FF"/>
<stop offset="0.9999" stop-color="#E59D79"/>
<stop offset="1" stop-color="#B210FF"/>
</linearGradient>
<linearGradient id="paint5_linear" x1="46.0005" y1="47" x2="90.8341" y2="333.996" gradientUnits="userSpaceOnUse">
<stop stop-color="#FF6FD8"/>
<stop offset="1" stop-color="#3813C2"/>
</linearGradient>
<linearGradient id="paint6_linear" x1="455" y1="194" x2="490.834" y2="353.973" gradientUnits="userSpaceOnUse">
<stop stop-color="#8E0288"/>
<stop offset="1" stop-color="#125BC6"/>
</linearGradient>
</defs>
</svg>
