<svg width="64" height="64" viewBox="0 0 64 64" fill="none" xmlns="http://www.w3.org/2000/svg">
<path d="M34.4419 17.0306L34.5215 23.3307L39.4538 27.6989L31.6575 27.8669L29.072 22.1967L31.4984 16.7366L34.4419 17.0306Z" fill="#3E6C12" fill-opacity="0.992157"/>
<path d="M31.6575 27.867L30.5616 33.3143L19.986 29.691L20.3608 24.8009L29.072 22.1968L31.6575 27.867Z" fill="#427413" fill-opacity="0.992157"/>
<path d="M11.323 23.9291L11.548 29.572L19.986 29.6908L20.3609 24.8007L15.4858 19.9197L11.323 23.9291Z" fill="#417313" fill-opacity="0.992157"/>
<path d="M11.548 29.5722L4.62081 29.6571L0 30.8875L0.0441987 22.0286L11.323 23.9293L11.548 29.5722Z" fill="#3D6A13" fill-opacity="0.992157"/>
<path d="M4.62079 29.657L9.68358 31.142L11.2908 30.9722L6.87091 36.4879L0.160717 36.7L0 30.8874L4.62079 29.657Z" fill="#375D14" fill-opacity="0.890196"/>
<path d="M11.2909 30.9722L16.2331 32.9239L16.5546 39.2457L6.87097 36.4879L11.2909 30.9722Z" fill="#3A6616" fill-opacity="0.992157"/>
<path d="M16.233 32.9238L19.7357 33.729L19.9062 35.469L21.611 34.389L23.543 35.349L21.1564 43.3893L18.372 41.4692V39.4292L16.5545 39.2456L16.233 32.9238Z" fill="#3B6716" fill-opacity="0.992157"/>
<path d="M23.5431 35.3491L25.5551 36.1059L25.4747 37.6334L26.8007 38.2698L27.6847 37.0819L29.2517 37.294L30.3366 38.9486L29.1714 49.9374L21.1564 43.3893L23.5431 35.3491Z" fill="#355F13" fill-opacity="0.992157"/>
<path d="M30.3366 38.9485L32.2652 38.7788L33.2296 39.8395L34.4752 39.5001L34.5556 41.07L35.3994 42.0882L34.3547 44.3793L36.6048 47.6886L34.5957 52.6527L29.1713 49.9374L30.3366 38.9485Z" fill="#335A11" fill-opacity="0.992157"/>
<path d="M35.3994 42.0883L37.3481 41.4943L37.5892 40.2639L40.2412 41.7701L41.4064 41.961L44.0687 46.83L42.873 54.6045L34.5958 52.6528L36.6048 47.6887L34.3547 44.3794L35.3994 42.0883Z" fill="#396314" fill-opacity="0.992157"/>
<path d="M41.4064 41.961L48.0162 38.9909L51.3914 38.0575L54.204 37.4636L56.3738 38.1425L55.972 42.5549L53.4004 45.6946L49.8645 46.4583L46.1679 45.9491L44.0687 46.8299L41.4064 41.961Z" fill="#497A17" fill-opacity="0.992157"/>
<path d="M42.873 54.6044L49.6234 56.2167L53.8826 56.3864L56.5345 52.1436L54.1236 48.6646L53.4004 45.6946L49.8645 46.4583L46.1678 45.9491L44.0686 46.8299L42.873 54.6044Z" fill="#396113" fill-opacity="0.992157"/>
<path d="M56.3738 38.1426L58.2221 38.6516L60.2311 40.8579L61.3562 42.4702L63.8474 42.8944L63.6867 43.9975L61.1151 44.2522L60.5526 48.0706L56.5345 52.1436L54.1237 48.6647L53.4004 45.6947L55.972 42.555L56.3738 38.1426Z" fill="#3C6A13" fill-opacity="0.992157"/>
<path d="M53.8826 56.3865L54.7279 55.0341L56.4541 56.9805L60.874 54.944L63.7671 52.9922L63.6867 43.9976L61.1151 44.2522L60.5526 48.0707L56.5345 52.1437L54.8402 54.8543L53.8826 56.3865Z" fill="#386418" fill-opacity="0.992157"/>
<path d="M56.4542 56.9805L56.558 60.3699L58.0354 61.0299L59.5697 57.7298L60.7062 57.9698L59.6833 60.4299L60.422 60.6099L61.9563 58.8698L63.9452 58.5698L63.7671 52.9922L60.8741 54.944L56.4542 56.9805Z" fill="#305A12" fill-opacity="0.996078"/>
<path d="M63.9451 58.5699L64 63.9723L59.0257 63.9385L58.8248 62.6021L56.7756 62.5808L56.8359 61.2868L57.76 61.4353L58.0354 61.0298L59.5696 57.7297L60.7061 57.9697L59.6833 60.4299L60.422 60.6099L61.9563 58.8698L63.9451 58.5699Z" fill="#93CF5D" fill-opacity="0.992157"/>
<path d="M59.0257 63.9385H53.2397L53.762 60.2048L55.8916 61.1383L56.558 60.3698L58.0354 61.0297L57.76 61.4352L56.8359 61.2867L56.7756 62.5807L58.8248 62.602L59.0257 63.9385Z" fill="#3B6714" fill-opacity="0.992157"/>
<path d="M56.5579 60.3699L53.1769 59.7099L49.9095 58.5099L48.6878 58.1199L49.9663 61.24L48.4321 64.0001L53.2397 63.9386L53.762 60.2049L55.8916 61.1384L56.5579 60.3699Z" fill="#3B6818" fill-opacity="0.992157"/>
<path d="M48.4321 64.0001L41.8405 63.9401L43.7867 60.6399L47.8496 59.5899L48.6878 58.1199L49.9663 61.24L48.4321 64.0001Z" fill="#335B14" fill-opacity="0.992157"/>
<path d="M41.8404 63.94L41.2722 63.91L41.7836 59.4098L41.3006 59.0198L40.1357 61.0898L39.6811 61.3599L39.6527 59.3799L40.3062 59.2598L40.1357 58.6898L38.3173 58.8998L37.465 58.7197L37.3513 57.5498L38.2889 57.2197L39.9937 56.2297L42.1586 54.436L42.9485 55.5096L43.3747 57.6997L43.7867 60.6398L41.8404 63.94Z" fill="#395A14" fill-opacity="0.992157"/>
<path d="M42.9485 55.5098L48.6878 58.1199L47.8496 59.5899L43.7866 60.6399L42.9485 55.5098Z" fill="#2F5A11" fill-opacity="0.992157"/>
<path d="M48.7046 38.8007L46.7303 36.1484L53.7821 35.0029L58.3024 36L60.8338 38.5881L62.4612 40.858L63.8876 42.1095L63.8474 42.8945L61.3562 42.4703L60.2311 40.858L58.2221 38.6517L56.3738 38.1426L54.204 37.4638L51.3913 38.0577L48.7046 38.8007Z" fill="#376310" fill-opacity="0.992157"/>
<path d="M63.8877 42.1093L63.8073 35.2573L59.9901 31.6934L53.7822 35.0028L58.3025 35.9998L60.8339 38.588L62.4612 40.8578L63.8877 42.1093Z" fill="#3A6913" fill-opacity="0.992157"/>
<path d="M46.7304 36.1483L43.315 35.5543L39.1362 35.8937L36.2432 35.2149L41.0649 30.8448L47.0518 29.3599L53.7821 35.0028L46.7304 36.1483Z" fill="#447415" fill-opacity="0.992157"/>
<path d="M30.5616 33.3141L36.2432 35.2149L41.0649 30.8448L39.4538 27.6987L31.6575 27.8668L30.5616 33.3141Z" fill="#3D6E13" fill-opacity="0.992157"/>
<path d="M39.4539 27.6989L46.5697 27.7478L48.7394 26.5598L47.0518 29.36L41.0649 30.845L39.4539 27.6989Z" fill="#457318" fill-opacity="0.992157"/>
<path d="M48.7394 26.5597L49.6636 24.0141L53.8826 22.5715L56.1327 28.3841L53.7821 35.0029L47.0518 29.36L48.7394 26.5597Z" fill="#467718" fill-opacity="0.992157"/>
<path d="M56.1327 28.3841L60.1107 25.3293L63.968 25.4566L63.8073 35.2574L59.9901 31.6935L53.7822 35.0029L56.1327 28.3841Z" fill="#447614" fill-opacity="0.992157"/>
<path d="M53.8826 22.5716L58.1016 20.6624L60.3919 16.5469L63.968 17.1833V25.4567L60.1106 25.3294L56.1327 28.3842L53.8826 22.5716Z" fill="#447516" fill-opacity="0.992157"/>
<path d="M46.5696 27.7477L47.7751 20.832L47.6545 14.0435L48.7796 13.5344L50.1457 16.3346L49.6636 24.014L48.7394 26.5597L46.5696 27.7477Z" fill="#305A11" fill-opacity="0.992157"/>
<path d="M48.7796 13.5344L50.8288 14.4254L52.9584 15.8255L57.1372 16.1649L60.3919 16.5467L58.1016 20.6623L53.8826 22.5715L49.6636 24.014L50.1458 16.3346L48.7796 13.5344Z" fill="#2D5612" fill-opacity="0.992157"/>
<path d="M43.3958 27.7259L46.6098 18.2863V13.9163L47.6545 14.0435L47.7751 20.832L46.5697 27.7478L43.3958 27.7259Z" fill="#375C0D" fill-opacity="0.992157"/>
<path d="M47.6546 14.0435L46.8005 13.9394L48.86 9.97046L52.3156 10.1401L48.7797 13.5344L47.6546 14.0435Z" fill="#22450D" fill-opacity="0.992157"/>
<path d="M57.4988 12.2175L57.6194 10.0962L58.5435 10.181C58.5435 10.181 58.5435 10.8174 58.7444 10.8599C58.9453 10.9023 59.99 10.6477 59.99 10.6477L60.1508 10.181L62.6822 11.5387L57.4988 12.2175Z" fill="#437515"/>
<path d="M52.3155 10.1402L53.6599 9.18823L56.5011 9.51824L57.5585 11.1687L57.4989 12.2174L56.1669 16.0861L52.9584 15.8254L50.8288 14.4254L48.7796 13.5344L52.3155 10.1402Z" fill="#223810" fill-opacity="0.992157"/>
<path d="M56.1669 16.0861L60.3919 16.5468L63.968 17.1831L63.9736 10.5684L62.6822 11.5387L57.4989 12.2175L56.1669 16.0861Z" fill="#223710" fill-opacity="0.992157"/>
<path d="M46.6098 13.9163L45.324 12.1768L47.534 5.85506L48.4581 5.55811L48.8599 9.97059L46.6098 13.9163Z" fill="#3F6517" fill-opacity="0.992157"/>
<path d="M45.3241 12.1768L43.3552 11.9222L44.6812 9.46143L46.2655 9.4839L45.3241 12.1768Z" fill="#4B680B" fill-opacity="0.992157"/>
<path d="M44.6812 9.46145L45.4848 3.94581L45.7259 1.56982L48.4582 5.55809L47.534 5.85505L46.2655 9.48392L44.6812 9.46145Z" fill="#456B11" fill-opacity="0.992157"/>
<path d="M39.1161 21.447L40.5024 23.8442L42.7726 23.7806L44.0383 20.8956L42.1096 19.5591L39.1161 21.447Z" fill="#2D2804" fill-opacity="0.992157"/>
<path d="M39.4576 9.2068H41.1854L42.1095 7.84911L41.7479 5.72771L39.2567 4.92163L38.4531 5.72771L38.0513 7.84911L39.4576 9.2068Z" fill="#2B2608" fill-opacity="0.992157"/>
<path d="M39.4576 9.20681L34.4419 11.1503L37.0274 13.6704L43.3552 11.9222L44.6811 9.4614L42.1095 7.84912L41.1854 9.20681H39.4576Z" fill="#F4F483" fill-opacity="0.992157"/>
<path d="M34.4419 11.1504L34.4752 5.23989L37.5892 1.23047L39.2567 4.92172L38.4531 5.7278L38.0513 7.8492L39.4576 9.20689L34.4419 11.1504Z" fill="#F5F185" fill-opacity="0.992157"/>
<path d="M37.5892 1.23036L39.317 0L42.5717 0.16969L44.3396 0.657604L45.7259 1.56974L44.6812 9.46137L42.1096 7.84909L41.7479 5.7277L39.2567 4.92161L37.5892 1.23036Z" fill="#E3DB7D" fill-opacity="0.992157"/>
<path d="M39.1162 21.4472L34.5215 23.3308L39.4539 27.6989L43.3958 27.726L46.6099 18.2864L44.0383 20.8957L42.7726 23.7808L40.5024 23.8444L39.1162 21.4472Z" fill="#F1E681" fill-opacity="0.992157"/>
<path d="M42.1095 19.5592L43.3552 11.9221L37.0274 13.6704L34.4419 17.0305L34.5215 23.3306L39.1161 21.4471L42.1095 19.5592Z" fill="#F6F48A" fill-opacity="0.992157"/>
<path d="M43.3552 11.9221L45.324 12.1767L46.6098 13.9162V18.2863L44.0383 20.8956L42.1096 19.5592L43.3552 11.9221Z" fill="#F4F288" fill-opacity="0.992157"/>
<path d="M46.6098 13.9162L46.8004 13.9394L48.8599 9.97046L46.6098 13.9162Z" fill="#6C740C" fill-opacity="0.992157"/>
<path d="M15.1382 29.6226L16.4041 29.6403L15.4897 31.1311L14.2366 32.1352L13.2819 31.7583L13.4204 30.6538L15.1382 29.6226Z" fill="#BD9468"/>
<path d="M16.4041 29.6404L17.1171 32.1496L16.2331 32.924L15.0578 32.0117L14.2366 32.1354L15.4897 31.1312L16.4041 29.6404Z" fill="#E2CB8C"/>
<path d="M20.5056 29.8689L22.4906 30.549L21.611 34.3891L19.9062 35.4691L19.7358 33.7291L20.5056 29.8689Z" fill="#F5D29F"/>
<path d="M26.4853 31.9177L28.1505 32.4883L27.765 36.0106L26.3386 37.7925L25.555 36.106L24.661 34.112L26.4853 31.9177Z" fill="#DDA47B"/>
<path d="M31.1939 33.5256L30.3768 38.4925L31.7128 38.6091L32.9082 36.7423L33.175 34.1884L31.1939 33.5256Z" fill="#E2B58D"/>
<path d="M35.4377 34.9456L36.2432 35.215L37.7589 35.5706L37.0669 40.126L36.5747 41.367L35.0679 41.2504L34.8369 39.3305L35.4377 34.9456Z" fill="#D6A479"/>
<path d="M11.2908 30.9721L9.68358 31.1419L4.62079 29.6569L11.548 29.572L15.1382 29.6226L13.4204 30.6538L13.2818 31.7583L11.2908 30.9721Z" fill="#FF0000"/>
<path d="M14.2366 32.1354L16.2331 32.924L15.0578 32.0117L14.2366 32.1354Z" fill="#FF0000"/>
<path d="M16.233 32.924L19.7357 33.7291L20.5056 29.8689L19.9859 29.6909L16.404 29.6404L17.117 32.1496L16.233 32.924Z" fill="#D10100"/>
<path d="M21.611 34.3891L23.543 35.3492L25.555 36.106L24.661 34.1119L26.4853 31.9177L22.4906 30.5491L21.611 34.3891Z" fill="#D10100"/>
<path d="M25.555 36.106L25.4747 37.6335L26.8006 38.2699L27.6846 37.082L29.2517 37.2941L30.3366 38.9487L30.3767 38.4927L31.1939 33.5258L28.1505 32.4883L27.765 36.0106L26.3386 37.7925L25.555 36.106Z" fill="#D10100"/>
<path d="M30.3365 38.9486L32.2652 38.7789L33.2296 39.8396L34.4752 39.5002L34.5555 41.07L35.3993 42.0883L35.0678 41.2503L34.8368 39.3305L35.4376 34.9455L33.175 34.1885L32.9081 36.7424L31.7127 38.6092L30.3767 38.4926L30.3365 38.9486Z" fill="#D10100"/>
<path d="M35.3994 42.0884L37.3481 41.4944L37.5892 40.264L40.2412 41.7702L41.4064 41.9611L48.0162 38.9911L48.7046 38.8007L46.7304 36.1485L43.315 35.5544L41.4637 35.7048L43.0538 36.7849L44.1387 38.2487L44.2593 39.7549L42.5817 40.1474L41.7881 41.2716L40.5727 40.8474L40.3606 35.7944L39.1362 35.8939L37.7588 35.5707L37.0669 40.1261L36.5747 41.3671L35.0679 41.2505L35.3994 42.0884Z" fill="#D10100"/>
<path d="M0.0441895 15.9105C15.7951 13.0593 15.7951 13.0593 15.7951 13.0593L15.4857 19.9199L11.323 23.9293L0.0441895 22.0286V15.9105Z" fill="#376014" fill-opacity="0.992157"/>
<path d="M15.7951 13.0593C27.6401 12.3684 27.6401 12.3264 27.6401 12.3264L31.4984 16.7365L29.072 22.1967L20.3608 24.8008L15.4857 19.9198L15.7951 13.0593Z" fill="#417215" fill-opacity="0.992157"/>
<path d="M27.6401 12.3264L34.4419 11.1504L37.0274 13.6705L34.4419 17.0306L31.4984 16.7366L27.6401 12.3264Z" fill="#4E7B17" fill-opacity="0.992157"/>
<path d="M40.3606 35.7944L41.4637 35.7048L43.0538 36.7849L44.1387 38.2486L44.2592 39.7549L42.5816 40.1474L41.7881 41.2716L40.5726 40.8474L40.3606 35.7944Z" fill="#F5D79E"/>
</svg>
