<svg width="1102" height="772" viewBox="0 0 1102 772" fill="none" xmlns="http://www.w3.org/2000/svg">
<rect x="785" y="-142" width="426" height="393" fill="url(#paint0_linear)"/>
<path d="M1181.91 586.468L1211.28 628.439L1296.48 504.72L1414.94 332.697L1361.29 325.977C1307.85 318.951 1200.23 305.973 1118.52 255.364C1036.81 204.756 979.951 118.054 909.506 51.088C838.743 -15.4171 754.388 -62.1855 666.702 -104.116C579.333 -146.507 488.633 -184.06 421.043 -255.172C353.242 -325.978 308.022 -429.576 285.412 -481.375L262.803 -533.173L110.494 -312L0.953735 -152.933L52.6578 -143.383C104.362 -133.833 207.77 -114.733 294.937 -72.0497C382.257 -29.587 452.955 37.012 526.049 100.131C598.915 163.582 674.178 223.553 759.215 269.33C844.481 314.775 939.521 346.026 1016.69 403.236C1093.85 460.445 1152.38 544.718 1181.91 586.468Z" fill="url(#paint1_linear)"/>
<path d="M612.66 -2.5C612.66 -2.5 655.833 100.18 734.143 156.878C812.836 213.185 928.446 231.846 1020.83 274.191C1103.31 312.331 1109.18 312.885 1109.5 312.583V312.5C1109.5 312.5 1109.54 312.547 1109.5 312.583V772C1072.05 741.91 1088.64 754.351 1017.06 690.79C945.35 627.361 877.086 560.419 820.828 481.233C764.7 401.916 720.256 310.682 657.239 238.39C594.028 166.294 512.244 113.139 430.138 60.313C348.032 7.48645 373.918 23.8476 332.8 -2.49997L612.66 -2.5Z" fill="url(#paint2_linear)"/>
<defs>
<linearGradient id="paint0_linear" x1="884.5" y1="179" x2="1158.39" y2="-17.8922" gradientUnits="userSpaceOnUse">
<stop stop-color="#9F1923"/>
<stop offset="1" stop-color="#EB22CA"/>
</linearGradient>
<linearGradient id="paint1_linear" x1="985.5" y1="34" x2="747" y2="261.5" gradientUnits="userSpaceOnUse">
<stop stop-color="#C1365F"/>
<stop offset="1" stop-color="#BF39C1"/>
</linearGradient>
<linearGradient id="paint2_linear" x1="1084.5" y1="-98.5004" x2="598.5" y2="419" gradientUnits="userSpaceOnUse">
<stop offset="0.285284" stop-color="#FF297A"/>
<stop offset="1" stop-color="#6331C6"/>
</linearGradient>
</defs>
</svg>
