<svg width="25" height="24" viewBox="0 0 25 24" fill="none" xmlns="http://www.w3.org/2000/svg">
<g clip-path="url(#clip0)">
<path d="M24.1667 12C24.1667 5.37258 18.7568 0 12.0833 0C5.40989 0 0 5.37258 0 12C0 18.6274 5.40989 24 12.0833 24C18.7568 24 24.1667 18.6274 24.1667 12Z" fill="#030027"/>
<path fill-rule="evenodd" clip-rule="evenodd" d="M15.8203 23.4144C14.6434 23.7945 13.3874 24 12.0833 24C10.7784 24 9.52155 23.7942 8.34392 23.4136C8.88793 23.4784 9.08891 23.1266 9.08891 22.8229C9.08891 22.6907 9.08665 22.4575 9.08358 22.1456C9.0801 21.7846 9.07552 21.3182 9.0723 20.7808C5.71087 21.5065 5.00172 19.1709 5.00172 19.1709C4.45269 17.784 3.66047 17.4147 3.66047 17.4147C2.56316 16.6694 3.74355 16.6845 3.74355 16.6845C4.95566 16.7694 5.59381 17.9221 5.59381 17.9221C6.67225 19.7572 8.42206 19.2274 9.11081 18.9196C9.22032 18.1436 9.53297 17.6143 9.87811 17.3142C7.19485 17.011 4.37415 15.9813 4.37415 11.3799C4.37415 10.0687 4.84464 8.99703 5.61797 8.15713C5.49336 7.85328 5.07876 6.63288 5.73579 4.97947C5.73579 4.97947 6.75079 4.65671 9.0587 6.21033C10.0231 5.94383 11.0562 5.81113 12.0841 5.80573C13.1104 5.81093 14.1443 5.94383 15.1094 6.21033C17.4158 4.65671 18.4286 4.97947 18.4286 4.97947C19.0879 6.63288 18.6733 7.85328 18.5487 8.15713C19.3235 8.99703 19.791 10.0687 19.791 11.3799C19.791 15.9925 16.9657 17.0081 14.2742 17.3052C14.7077 17.676 15.0943 18.4084 15.0943 19.529C15.0943 20.6025 15.0876 21.537 15.0831 22.1563C15.0809 22.4631 15.0792 22.6925 15.0792 22.8231C15.0792 23.1282 15.2754 23.4807 15.8203 23.4144Z" fill="white"/>
</g>
<defs>
<clipPath id="clip0">
<rect width="24.1667" height="24" fill="white"/>
</clipPath>
</defs>
</svg>
